<?xml version="1.0"?>
<svg xmlns="http://www.w3.org/2000/svg" xmlns:inkscape="http://www.inkscape.org/namespaces/inkscape" xmlns:lc="https://librecad.org" xmlns:xlink="http://www.w3.org/1999/xlink" width="99.01438337mm" height="180mm" viewBox="0 0 99.01438337 180">
    <g lc:layername="0" lc:is_locked="false" lc:is_construction="false" fill="none" stroke="black" stroke-width="1">
        <path inkscape:label="SegmentA" d="M26.39794864,2.76472922 L39.63321941,16 L79.41377264,16 L89.63310222,1.40528482 L87.52273246,0.63032185 L85.3246167,0.15878971 L83.19004902,0 L35.19110843,0 L32.86418724,0.19949692 L30.5911223,0.73553458 L28.42029532,1.5967377 L26.39794864,2.76472922 Z "/>
        <path inkscape:label="SegmentB" d="M90.7461231,76.38966883 L98.91954387,18.23275815 L99.01438337,14.59661194 L98.28554443,11.03298385 L96.77064481,7.72606224 L94.54801449,4.84674344 L82.15643112,22.54375853 L74.96013726,73.74804994 L85.29545084,80.20627063 L90.7461231,76.38966883 Z "/>
        <path inkscape:label="SegmentC" d="M75.99233697,164.27252551 L74.15486545,166.14046826 L64.35962498,149.17461409 L71.68356652,97.06206217 L85.48379999,87.39903467 L88.8989411,89.53305168 L79.38090555,157.25739367 L78.64071285,159.77088973 L77.50105378,162.13026856 L75.99233697,164.27252551 Z "/>
        <path inkscape:label="SegmentD" d="M3.87556465,164.46180563 L6.26413549,166.71392647 L9.06181297,168.43155842 L12.15100737,169.5424755 L15.40183805,170 L64.7222138,170 L66.15831195,169.84133493 L67.57430425,169.55404837 L68.95871303,169.14046826 L60.2173596,154 L21.99594353,154 L3.87556465,164.46180563 Z "/>
        <path inkscape:label="SegmentE" d="M8.5597844,91.94627699 L0.06897093,152.36155408 L0,154.69407202 L0.27078109,157.01184573 L0.87556465,159.2656532 L16.52578314,150.22999535 L24.10034158,96.33421151 L13.46039117,88.88403802 L8.5597844,91.94627699 Z "/>
        <path inkscape:label="SegmentF" d="M20.1055684,11.26631551 L19.57405052,13.57570132 L10.32783401,79.36595035 L13.64874032,81.69127398 L27.36262055,73.12189053 L34.86778792,19.71984988 L22.15530795,7.00736991 L20.97232016,9.0607581 L20.1055684,11.26631551 Z "/>
        <path inkscape:label="SegmentG" d="M29.79927484,93 L18.98810626,85.42993827 L32.47882755,77 L68.84186574,77 L79.95608489,83.94493492 L67.02411174,93 L29.79927484,93 Z "/>
        <path inkscape:label="SegmentDP" d="M96.38119212,180 L82.24360611,180 L84.49225946,164 L98.62984548,164 L96.38119212,180 Z "/>
    </g>
</svg>
