<?xml version="1.0" encoding="UTF-8" standalone="no"?>
<svg
   width="432"
   height="432"
   viewBox="0 0 432 432"
   version="1.1"
   id="svg23"
   sodipodi:docname="app-icon.svg"
   inkscape:version="1.4.4 (1:1.4.4+202605061436+dcaf3e7d9e)"
   xmlns:inkscape="http://www.inkscape.org/namespaces/inkscape"
   xmlns:sodipodi="http://sodipodi.sourceforge.net/DTD/sodipodi-0.dtd"
   xmlns="http://www.w3.org/2000/svg"
   xmlns:svg="http://www.w3.org/2000/svg">
  <sodipodi:namedview
     id="namedview23"
     pagecolor="#ffffff"
     bordercolor="#666666"
     borderopacity="1.0"
     inkscape:showpageshadow="2"
     inkscape:pageopacity="0.0"
     inkscape:pagecheckerboard="0"
     inkscape:deskcolor="#d1d1d1"
     inkscape:zoom="1.8657407"
     inkscape:cx="216.26799"
     inkscape:cy="216"
     inkscape:window-width="1920"
     inkscape:window-height="1008"
     inkscape:window-x="0"
     inkscape:window-y="0"
     inkscape:window-maximized="1"
     inkscape:current-layer="svg23" />
  <defs
     id="defs4">
    <linearGradient
       id="bg"
       x1="62"
       y1="40"
       x2="372"
       y2="392"
       gradientUnits="userSpaceOnUse">
      <stop
         offset="0"
         stop-color="#59686a"
         id="stop1" />
      <stop
         offset="1"
         stop-color="#26383a"
         id="stop2" />
    </linearGradient>
    <linearGradient
       id="body"
       x1="116"
       y1="52"
       x2="324"
       y2="376"
       gradientUnits="userSpaceOnUse"
       gradientTransform="matrix(0.7447963,0,0,0.7447963,55.124014,55.123998)">
      <stop
         offset="0"
         stop-color="#526265"
         id="stop3" />
      <stop
         offset="1"
         stop-color="#27393b"
         id="stop4" />
    </linearGradient>
  </defs>
  <rect
     width="432"
     height="432"
     rx="180"
     fill="url(#bg)"
     id="rect4"
     x="0"
     y="0" />
  <rect
     x="115.58659"
     y="89.006577"
     width="200.82681"
     height="253.98685"
     rx="31.010023"
     fill="#182a24"
     id="rect5"
     style="stroke-width:0.738336" />
  <rect
     x="135.56204"
     y="102.79096"
     width="160.87602"
     height="226.41809"
     rx="22.343893"
     fill="url(#body)"
     id="rect6"
     style="fill:url(#body);stroke-width:0.744795" />
  <rect
     x="148.04747"
     y="115.80956"
     width="135.90514"
     height="79.277992"
     rx="11.325428"
     fill="#d6ddc8"
     id="rect7"
     style="fill:#d4dcc5;fill-opacity:1;stroke-width:0.808965" />
  <g
     id="g5"
     transform="matrix(0.80895917,0,0,0.80895917,41.264834,29.266839)">
    <g
       id="g2">
      <rect
         x="132"
         y="226"
         width="70"
         height="54"
         rx="17"
         fill="#e1e5e2"
         id="rect17"
         style="fill:#8e8e8e;fill-opacity:1" />
      <path
         d="m 154,253 h 26 m -13,-13 v 26"
         id="path20"
         style="stroke:#ffc76d;stroke-width:10;stroke-linecap:round" />
    </g>
    <g
       id="g1">
      <rect
         x="230"
         y="226"
         width="70"
         height="54"
         rx="17"
         fill="#e1e5e2"
         id="rect18"
         style="fill:#8e8e8e;fill-opacity:1" />
      <path
         d="m 252,253 h 26"
         id="path21"
         style="stroke:#ffc76d;stroke-width:10;stroke-linecap:round" />
    </g>
    <g
       id="g3">
      <rect
         x="132"
         y="304"
         width="70"
         height="54"
         rx="17"
         fill="#20392b"
         id="rect19"
         style="fill:#213229;fill-opacity:1" />
      <path
         d="m 155,319 24,24 m 0,-24 -24,24"
         id="path22"
         style="stroke:#ffc76d;stroke-width:10;stroke-linecap:round" />
    </g>
    <g
       id="g4">
      <rect
         x="230"
         y="304"
         width="70"
         height="54"
         rx="17"
         fill="#7890d3"
         id="rect20"
         style="fill:#6e86c6;fill-opacity:1" />
      <path
         d="m 252,324 h 26 m -26,16 h 26"
         id="path23"
         style="stroke:#ffc76d;stroke-width:10;stroke-linecap:round" />
    </g>
  </g>
  <path
     d="m 199.58376,151.71062 3.93781,3.93778 -3.81281,3.81278 h -21.37658 l -3.87533,-3.87529 3.87533,-3.87527 z m -27.06453,-25.43945 1.93762,-1.93764 h 29.12722 l 1.93765,1.93764 -5.81296,5.81295 h -21.37658 z m 31.93991,30.2523 0.25005,-0.25006 h 3.62526 v 25.81443 l -1.93764,1.93765 -5.81295,-5.81294 V 160.3362 Z m 1.93764,-29.37724 1.93764,1.93765 v 25.87698 h -3.62525 l -0.25005,-0.25006 -3.87531,-3.81278 v -17.93888 z m -0.87506,57.75437 -1.93765,1.93764 h -29.12722 l -1.93762,-1.93764 5.81295,-5.81293 h 21.37658 z m 45.06589,-33.18998 3.9378,3.93778 -3.81275,3.81278 h -21.37664 l -3.87531,-3.87529 3.87531,-3.87527 z m -26.00194,2.93771 -0.25005,0.31253 h -3.62526 v -25.87698 l 1.93762,-1.93765 5.81295,5.81294 v 17.87637 z m -1.93767,29.3772 -1.93761,-1.93764 v -25.87695 h 3.62525 l 0.25006,0.31253 3.87528,3.81278 v 17.87636 z m 0.8751,-57.75436 1.93761,-1.93764 h 29.12723 l 1.93764,1.93764 -5.81292,5.81295 h -21.37664 z m 31.93991,30.2523 0.25006,-0.25006 h 3.62527 v 25.81443 l -1.93764,1.93765 -5.81298,-5.81294 V 160.3362 Z m 1.06257,28.37713 -1.93764,1.93764 h -29.12723 l -1.93761,-1.93764 5.81292,-5.81293 h 21.37664 z"
     id="text5"
     style="font-weight:bold;font-size:96px;line-height:1.25;font-family:'DSEG7 Classic';-inkscape-font-specification:'DSEG7 Classic Bold';stroke-width:0.651091"
     aria-label="36" />
</svg>
