<?xml version="1.0" encoding="UTF-8" standalone="no"?>
<svg
   width="400"
   height="400"
   viewBox="0 0 400 400"
   version="1.1"
   id="svg23"
   sodipodi:docname="app-icon2.svg"
   inkscape:version="1.4.4 (1:1.4.4+202605061436+dcaf3e7d9e)"
   xmlns:inkscape="http://www.inkscape.org/namespaces/inkscape"
   xmlns:sodipodi="http://sodipodi.sourceforge.net/DTD/sodipodi-0.dtd"
   xmlns="http://www.w3.org/2000/svg"
   xmlns:svg="http://www.w3.org/2000/svg">
  <sodipodi:namedview
     id="namedview23"
     pagecolor="#ffffff"
     bordercolor="#666666"
     borderopacity="1.0"
     inkscape:showpageshadow="2"
     inkscape:pageopacity="0.0"
     inkscape:pagecheckerboard="0"
     inkscape:deskcolor="#d1d1d1"
     inkscape:zoom="1.8657407"
     inkscape:cx="216.26799"
     inkscape:cy="216"
     inkscape:window-width="1920"
     inkscape:window-height="1008"
     inkscape:window-x="0"
     inkscape:window-y="0"
     inkscape:window-maximized="1"
     inkscape:current-layer="svg23" />
  <defs
     id="defs4">
    <linearGradient
       id="bg"
       x1="62"
       y1="40"
       x2="372"
       y2="392"
       gradientUnits="userSpaceOnUse">
      <stop
         offset="0"
         stop-color="#59686a"
         id="stop1" />
      <stop
         offset="1"
         stop-color="#26383a"
         id="stop2" />
    </linearGradient>
    <linearGradient
       id="body"
       x1="116"
       y1="52"
       x2="324"
       y2="376"
       gradientUnits="userSpaceOnUse"
       gradientTransform="matrix(0.7447963,0,0,0.7447963,55.124014,55.123998)">
      <stop
         offset="0"
         stop-color="#526265"
         id="stop3" />
      <stop
         offset="1"
         stop-color="#27393b"
         id="stop4" />
    </linearGradient>
  </defs>
  <rect
     width="400"
     height="400"
     rx="150"
     fill="url(#bg)"
     id="rect4"
     x="0"
     y="0"
     style="fill:url(#bg)" />
  <rect
     x="100"
     y="80"
     width="200"
     height="80"
     rx="16.666668"
     fill="#d6ddc8"
     id="rect7"
     style="fill:#d4dcc5;fill-opacity:1;stroke-width:0.985815" />
  <g
     id="g2"
     transform="matrix(1.3571429,0,0,1.2962963,-79.142858,-122.96296)">
    <rect
       x="132"
       y="226"
       width="70"
       height="54"
       rx="17"
       fill="#e1e5e2"
       id="rect17"
       style="fill:#8e8e8e;fill-opacity:1" />
    <path
       d="m 154,253 h 26 m -13,-13 v 26"
       id="path20"
       style="stroke:#ffc76d;stroke-width:10;stroke-linecap:round" />
  </g>
  <g
     id="g1"
     transform="matrix(1.3571429,0,0,1.2962963,-107.14286,-122.96296)">
    <rect
       x="230"
       y="226"
       width="70"
       height="54"
       rx="17"
       fill="#e1e5e2"
       id="rect18"
       style="fill:#8e8e8e;fill-opacity:1" />
    <path
       d="m 252,253 h 26"
       id="path21"
       style="stroke:#ffc76d;stroke-width:10;stroke-linecap:round" />
  </g>
  <g
     id="g3"
     transform="matrix(1.3571429,0,0,1.2962963,-79.142858,-144.07408)">
    <rect
       x="132"
       y="304"
       width="70"
       height="54"
       rx="17"
       fill="#20392b"
       id="rect19"
       style="fill:#213229;fill-opacity:1" />
    <path
       d="m 155,319 24,24 m 0,-24 -24,24"
       id="path22"
       style="stroke:#ffc76d;stroke-width:10;stroke-linecap:round" />
  </g>
  <g
     id="g4"
     transform="matrix(1.3571429,0,0,1.2962963,-107.14286,-144.07408)">
    <rect
       x="230"
       y="304"
       width="70"
       height="54"
       rx="17"
       fill="#7890d3"
       id="rect20"
       style="fill:#6e86c6;fill-opacity:1" />
    <path
       d="m 252,324 h 26 m -26,16 h 26"
       id="path23"
       style="stroke:#ffc76d;stroke-width:10;stroke-linecap:round" />
  </g>
  <path
     d="m 181.17347,115.66003 4.53565,4.40998 -4.39168,4.26999 h -24.62196 l -4.46369,-4.33999 4.46369,-4.33998 z M 150,87.16999 152.23179,85 h 33.54932 l 2.23182,2.16999 -6.69549,6.51002 h -24.62196 z m 36.78903,33.88003 0.28801,-0.28005 h 4.17565 v 28.90998 l -2.23181,2.17001 -6.69547,-6.51 v -20.02001 z m 2.23181,-32.90003 2.23182,2.17 v 28.98003 h -4.17564 l -0.28801,-0.28004 -4.46367,-4.26999 V 94.65996 Z M 188.01293,152.83001 185.78111,155 H 152.23179 L 150,152.83001 l 6.69548,-6.50999 h 24.62196 z m 51.9078,-37.16998 4.53564,4.40998 -4.3916,4.26999 h -24.62205 l -4.46365,-4.33999 4.46365,-4.33998 z m -29.94955,3.28999 -0.28801,0.35 h -4.17566 V 90.31999 l 2.23179,-2.17 6.69548,6.51 v 20.02002 z m -2.23186,32.89998 -2.23178,-2.16999 v -28.98 h 4.17565 l 0.28802,0.35001 4.46362,4.26999 v 20.02001 z M 208.74729,87.16999 210.97907,85 h 33.54932 l 2.23182,2.16999 -6.69544,6.51002 h -24.62205 z m 36.78903,33.88003 0.28802,-0.28005 H 250 v 28.90998 l -2.23181,2.17001 -6.69551,-6.51 v -20.02001 z m 1.22389,31.77999 L 244.52839,155 h -33.54932 l -2.23178,-2.16999 6.69543,-6.50999 h 24.62205 z"
     id="text5"
     style="font-weight:bold;font-size:96px;line-height:1.25;font-family:'DSEG7 Classic';-inkscape-font-specification:'DSEG7 Classic Bold';stroke-width:0.739481"
     aria-label="36" />
</svg>
